<svg xmlns="http://www.w3.org/2000/svg" xmlns:xlink="http://www.w3.org/1999/xlink" width="59.015" height="35.409" viewBox="0 0 59.015 35.409"><defs><style>.a{fill:#404040;}.b{clip-path:url(#a);}.c{fill:#ff6c6c;}.d{fill:#ee3b3f;}.e{fill:#1992dd;}.f{fill:#0468b2;}.g{fill:#ffce00;}.h{fill:#f7ab1b;}.i{fill:#85dd52;}.j{fill:#6bb745;}.k{fill:#c60c1e;}.l{fill:#064c91;}.m{fill:#f48d1c;}.n{fill:#4a9e19;}</style><clipPath id="a"><rect class="a" width="59.015" height="35.409" transform="translate(1590.492 6894.295)"/></clipPath></defs><g class="b" transform="translate(-1590.492 -6894.295)"><g transform="translate(1590.492 6882.492)"><path class="c" d="M7.3,23.148C.284,23.148,0,28.666.1,30.069c0,0-.374,6.359,7.014,6.359,6.359,0,6.64-4.021,6.64-4.021h-2.9s-.561,2.151-3.741,2.057c-4.021,0-4.208-4.021-4.208-4.021H14.125C14.218,30.443,15.06,23.148,7.3,23.148ZM3,28.572A3.877,3.877,0,0,1,7.2,25.019a3.645,3.645,0,0,1,4.021,3.554Z"/><path class="d" d="M.1,29.227s-.374,7.2,7.014,7.2c6.359,0,6.64-4.021,6.64-4.021h-2.9s-.561,2.151-3.741,2.057c-4.021,0-4.208-4.021-4.208-4.021H14.125s.842-7.295-6.921-7.295M3,28.572A3.877,3.877,0,0,1,7.2,25.019a3.645,3.645,0,0,1,4.021,3.554Z"/><path class="e" d="M22.261,23.242c-3.554,0-4.863,2.057-4.863,2.057V18.285h-3.18l.094,14.87s0,1.964-.094,2.9h2.712l.094-1.683s1.309,2.057,5.05,2.057,6.734-2.338,6.827-6.547A6.431,6.431,0,0,0,22.261,23.242ZM21.42,34.558c-4.4.094-4.4-4.676-4.4-4.676s-.187-4.583,4.4-4.676c4.489-.094,4.4,4.77,4.4,4.77S25.815,34.464,21.42,34.558Z"/><path class="f" d="M22.261,23.242c-3.554,0-4.863,2.057-4.863,2.057V18.285l-3.18,2.9V33.155s0,1.964-.094,2.9h2.712l.094-1.683s1.309,2.057,5.05,2.057,6.734-2.338,6.827-6.547A6.306,6.306,0,0,0,22.261,23.242ZM21.42,34.558c-4.4.094-4.4-4.676-4.4-4.676s-.187-4.583,4.4-4.676c4.489-.094,4.4,4.77,4.4,4.77S25.815,34.464,21.42,34.558Z"/><path class="g" d="M41.714,33.062c0-1.964.094-3.647,0-4.863-.094-1.4.094-4.957-5.985-5.237,0,0-5.8-.094-6.453,3.647h2.993s.187-1.87,3.273-1.777c2.9.094,3.367,1.5,3.367,3.273,0,0-2.432.094-3.273.094-1.5,0-6.64.187-7.108,3.367-.561,3.741,2.712,4.863,5.331,4.863s4.115-.748,5.237-2.151l.094,1.777h2.619C41.807,35.961,41.714,35.025,41.714,33.062Zm-7.388,1.59s-2.806,0-2.993-2.245c-.187-2.432,4.3-2.245,4.3-2.245h3.18C38.908,30.162,39.469,34.745,34.326,34.651Z"/><path class="h" d="M29.556,26.7h2.712s.187-1.87,3.273-1.777c2.9.094,3.367,1.5,3.367,3.273,0,0-2.432.094-3.273.094-1.5,0-6.64.187-7.108,3.367-.561,3.741,2.712,4.863,5.331,4.863s4.115-.748,5.237-2.151l.094,1.777h2.619s-.094-.935-.094-2.9.094-3.647,0-4.863c-.094-1.4.187-4.957-5.892-5.237m-1.5,11.5s-2.806,0-2.993-2.245c-.187-2.432,4.3-2.245,4.3-2.245h3.18C38.908,30.162,39.469,34.745,34.326,34.651Z"/><path class="i" d="M40.217,23.9h3.273l4.77,9.539L53.03,23.9h2.993l-8.7,16.834h-3.18l2.525-4.676Z"/><path class="j" d="M41.527,26.328,43.491,23.9l4.77,9.446L53.03,23.9h2.993l-8.7,16.834h-3.18l2.525-4.77Z"/><path class="j" d="M57.051,24.364V23.99h-.094V23.9h.094v-.187h.187V23.9h.187v.094h-.187v.374c0,.094,0,.094.094.094h.094v.094h-.187C57.145,24.645,57.051,24.551,57.051,24.364Z"/><path class="j" d="M57.706,23.9h.187v.094c.094-.094.094-.094.281-.094a.468.468,0,0,0,.561,0,.248.248,0,0,1,.281.281v.468h-.187V24.27a.187.187,0,1,0-.374,0v.374h-.187V24.27a.187.187,0,1,0-.374,0v.374h-.187V23.9Z"/><path class="k" d="M10.945,27.076a3.728,3.728,0,0,1,.374,1.5H3a3.528,3.528,0,0,1,1.87-2.993A7.614,7.614,0,0,0,.19,28.2,7.748,7.748,0,0,0,0,30.069s-.374,6.359,7.014,6.359c5.424,0,6.453-2.9,6.64-3.741v-.281h-2.9s-.561,2.151-3.741,2.057c-3.928,0-4.115-4.021-4.115-4.021H13.283A10.966,10.966,0,0,0,10.945,27.076Z"/><path class="l" d="M28.153,32.874a7.766,7.766,0,0,0-3.18-5.8,5.66,5.66,0,0,1,.748,2.993s.094,4.583-4.4,4.583c-4.4.094-4.4-4.676-4.4-4.676s-.094-3.086,2.338-4.208a7.55,7.55,0,0,0-5.144,3.18v4.4s0,1.964-.094,2.9h2.712l.094-1.683s1.309,2.057,5.05,2.057C24.693,36.428,27.124,35.213,28.153,32.874Z"/><path class="m" d="M41.714,33.062V28.947a7.588,7.588,0,0,0-3.367-2.806,2.951,2.951,0,0,1,.468,2.057s-2.432.094-3.273.094c-1.5,0-6.64.187-7.108,3.367-.561,3.741,2.712,4.863,5.331,4.863s4.115-.748,5.237-2.151l.094,1.777h2.619A27.641,27.641,0,0,0,41.714,33.062Zm-7.388,1.59s-2.806,0-2.993-2.245c-.187-2.432,4.3-2.245,4.3-2.245h3.18C38.908,30.162,39.469,34.745,34.326,34.651Z"/><path class="m" d="M30.865,26.7h1.5a2.947,2.947,0,0,1,.655-1.029C32.175,25.86,31.426,26.7,30.865,26.7Z"/><path class="n" d="M47.325,40.73,53.4,28.947a12.5,12.5,0,0,0-1.87-1.964L48.26,33.249l-3.741-7.2a7.545,7.545,0,0,0-2.245,1.59l4.4,8.417L44.145,40.73Z"/></g></g></svg>