<svg xmlns="http://www.w3.org/2000/svg" xmlns:xlink="http://www.w3.org/1999/xlink" width="59.015" height="35.409" viewBox="0 0 59.015 35.409"><defs><style>.a{fill:#404040;}.b{clip-path:url(#a);}.c{fill:#ffb600;}.d{fill:#f7981d;}.e{fill:#ff8500;}.f{fill:#ff5050;}.g{fill:#e52836;}.h{fill:#cb2026;}.i{fill:#fff;}.j{fill:#dce5e5;}</style><clipPath id="a"><rect class="a" width="59.015" height="35.409" transform="translate(1470.492 6894.295)"/></clipPath></defs><g class="b" transform="translate(-1470.492 -6894.295)"><g transform="translate(1470.492 6882.492)"><path class="c" d="M59.015,29.508a17.7,17.7,0,1,1-35.409,0h0a17.7,17.7,0,1,1,35.409,0Z"/><path class="d" d="M41.311,11.8a17.751,17.751,0,0,1,17.7,17.7h0a17.7,17.7,0,1,1-35.409,0"/><path class="e" d="M41.311,11.8a17.751,17.751,0,0,1,17.7,17.7h0a17.69,17.69,0,0,1-17.7,17.7"/><path class="f" d="M17.517,11.8A17.705,17.705,0,0,0,17.7,47.212a17.911,17.911,0,0,0,11.9-4.59h0a16.833,16.833,0,0,0,1.78-1.874H27.728a21.61,21.61,0,0,1-1.311-1.78h6.276a12,12,0,0,0,1.03-1.874H25.386a11.164,11.164,0,0,1-.749-1.874h9.742a18.6,18.6,0,0,0,.937-5.621,24.179,24.179,0,0,0-.375-3.747H24.074a13.7,13.7,0,0,1,.468-1.874h9.742a11.165,11.165,0,0,0-.749-1.874H25.292a18.577,18.577,0,0,1,1.03-1.874H32.6a8.908,8.908,0,0,0-1.405-1.874H27.728a15.966,15.966,0,0,1,1.78-1.78,17.286,17.286,0,0,0-11.9-4.59C17.611,11.8,17.611,11.8,17.517,11.8Z"/><path class="g" d="M0,29.508a17.69,17.69,0,0,0,17.7,17.7,17.911,17.911,0,0,0,11.9-4.59h0a16.833,16.833,0,0,0,1.78-1.874H27.728a21.61,21.61,0,0,1-1.311-1.78h6.276a12,12,0,0,0,1.03-1.874H25.386a11.164,11.164,0,0,1-.749-1.874h9.742a18.6,18.6,0,0,0,.937-5.621,24.179,24.179,0,0,0-.375-3.747H24.074a13.7,13.7,0,0,1,.468-1.874h9.742a11.165,11.165,0,0,0-.749-1.874H25.292a18.577,18.577,0,0,1,1.03-1.874H32.6a8.908,8.908,0,0,0-1.405-1.874H27.728a15.966,15.966,0,0,1,1.78-1.78,17.286,17.286,0,0,0-11.9-4.59h-.094"/><path class="h" d="M17.7,47.212a17.911,17.911,0,0,0,11.9-4.59h0a16.833,16.833,0,0,0,1.78-1.874H27.728a21.61,21.61,0,0,1-1.311-1.78h6.276a12,12,0,0,0,1.03-1.874H25.386a11.164,11.164,0,0,1-.749-1.874h9.742a18.6,18.6,0,0,0,.937-5.621,24.179,24.179,0,0,0-.375-3.747H24.074a13.7,13.7,0,0,1,.468-1.874h9.742a11.165,11.165,0,0,0-.749-1.874H25.292a18.577,18.577,0,0,1,1.03-1.874H32.6a8.908,8.908,0,0,0-1.405-1.874H27.728a15.966,15.966,0,0,1,1.78-1.78,17.286,17.286,0,0,0-11.9-4.59h-.094"/><path class="i" d="M23.981,34l.281-1.592a4.057,4.057,0,0,1-.468.094c-.656,0-.749-.375-.656-.562l.562-3.279h1.03l.281-1.78h-.937l.187-1.124H22.388s-1.124,6.183-1.124,6.932a1.406,1.406,0,0,0,1.5,1.592A2.875,2.875,0,0,0,23.981,34Z"/><path class="i" d="M24.637,31.006a2.98,2.98,0,0,0,3.279,3.279A4.863,4.863,0,0,0,29.882,34l.375-1.78a5.616,5.616,0,0,1-1.967.468c-2.061,0-1.686-1.5-1.686-1.5h3.841a12.146,12.146,0,0,0,.281-1.686,2.538,2.538,0,0,0-2.717-2.717C26.042,26.6,24.637,28.665,24.637,31.006Zm3.279-2.717c1.03,0,.843,1.218.843,1.311H26.7C26.7,29.508,26.885,28.29,27.915,28.29Z"/><path class="i" d="M39.812,34l.375-2.061a4.6,4.6,0,0,1-1.592.468c-1.311,0-1.874-1.03-1.874-2.155,0-2.248,1.124-3.466,2.436-3.466a3.128,3.128,0,0,1,1.686.562l.281-1.967a6.586,6.586,0,0,0-2.155-.468c-2.155,0-4.309,1.874-4.309,5.433,0,2.342,1.124,3.934,3.372,3.934A8.407,8.407,0,0,0,39.812,34Z"/><path class="i" d="M13.677,26.6a6.634,6.634,0,0,0-2.248.375l-.281,1.592a5.537,5.537,0,0,1,2.061-.375c.656,0,1.218.094,1.218.656,0,.375-.094.468-.094.468h-.843c-1.592,0-3.372.656-3.372,2.81,0,1.686,1.124,2.061,1.78,2.061a2.815,2.815,0,0,0,1.967-.843l-.094.749h1.686l.749-5.152A2.22,2.22,0,0,0,13.677,26.6Zm.375,4.215c0,.281-.187,1.78-1.311,1.78a.731.731,0,0,1-.749-.749c0-.468.281-1.124,1.686-1.124A1.477,1.477,0,0,0,14.051,30.819Z"/><path class="i" d="M17.986,34.191c.468,0,2.81.094,2.81-2.436,0-2.342-2.248-1.874-2.248-2.81,0-.468.375-.656,1.03-.656.281,0,1.311.094,1.311.094l.281-1.686a7.116,7.116,0,0,0-1.78-.187c-1.405,0-2.81.562-2.81,2.436,0,2.155,2.342,1.967,2.342,2.81,0,.562-.656.656-1.124.656a6.126,6.126,0,0,1-1.686-.281l-.281,1.686C15.925,34,16.393,34.191,17.986,34.191Z"/><path class="i" d="M55.362,25.1l-.375,2.529a2.6,2.6,0,0,0-1.78-.937c-1.686,0-3.185,2.061-3.185,4.5,0,1.5.749,3.091,2.342,3.091a2.5,2.5,0,0,0,1.78-.749l-.094.656h1.874L57.329,25.2Zm-.843,4.965c0,1.03-.468,2.342-1.5,2.342-.656,0-1.03-.562-1.03-1.5,0-1.5.656-2.436,1.5-2.436C54.144,28.477,54.519,28.946,54.519,30.07Z"/><path class="i" d="M3.466,34.1,4.59,27.353,4.777,34.1H6.089l2.436-6.745L7.494,34.1H9.461l1.5-8.993H7.869L6,30.632,5.9,25.1H3.185L1.686,34.1Z"/><path class="i" d="M32.505,34.1c.562-3.091.656-5.621,1.967-5.152a7.352,7.352,0,0,1,.656-2.155h-.375c-.843,0-1.5,1.124-1.5,1.124l.187-1.03h-1.78l-1.218,7.307h2.061Z"/><path class="i" d="M44.121,26.6a6.634,6.634,0,0,0-2.248.375l-.281,1.592a5.537,5.537,0,0,1,2.061-.375c.656,0,1.218.094,1.218.656,0,.375-.094.468-.094.468h-.843c-1.592,0-3.372.656-3.372,2.81,0,1.686,1.124,2.061,1.78,2.061a2.815,2.815,0,0,0,1.967-.843l-.094.749H45.9l.749-5.152A2.187,2.187,0,0,0,44.121,26.6Zm.468,4.215c0,.281-.187,1.78-1.311,1.78a.731.731,0,0,1-.749-.749c0-.468.281-1.124,1.686-1.124C44.5,30.819,44.5,30.819,44.589,30.819Z"/><path class="i" d="M48.243,34.1c.562-3.091.656-5.621,1.967-5.152a7.352,7.352,0,0,1,.656-2.155h-.375c-.843,0-1.5,1.124-1.5,1.124l.187-1.03H47.4l-1.218,7.307h2.061Z"/><path class="j" d="M21.077,32.693a1.406,1.406,0,0,0,1.5,1.592A3.566,3.566,0,0,0,23.981,34l.281-1.592a4.057,4.057,0,0,1-.468.094c-.656,0-.749-.375-.656-.562l.562-3.279h1.03l.281-1.78h-.937l.187-1.124"/><path class="j" d="M25.573,31.006c0,2.623.843,3.279,2.342,3.279A4.863,4.863,0,0,0,29.882,34l.375-1.78a5.616,5.616,0,0,1-1.967.468c-2.061,0-1.686-1.5-1.686-1.5h3.841a12.146,12.146,0,0,0,.281-1.686,2.538,2.538,0,0,0-2.717-2.717C26.042,26.6,25.573,28.665,25.573,31.006Zm2.342-2.717c1.03,0,1.218,1.218,1.218,1.311H26.7C26.7,29.508,26.885,28.29,27.915,28.29Z"/><path class="j" d="M39.812,34l.375-2.061a4.6,4.6,0,0,1-1.592.468c-1.311,0-1.874-1.03-1.874-2.155,0-2.248,1.124-3.466,2.436-3.466a3.128,3.128,0,0,1,1.686.562l.281-1.967a6.586,6.586,0,0,0-2.155-.468c-2.155,0-3.372,1.874-3.372,5.433,0,2.342.187,3.934,2.436,3.934A8.407,8.407,0,0,0,39.812,34Z"/><path class="j" d="M11.147,28.665a5.537,5.537,0,0,1,2.061-.375c.656,0,1.218.094,1.218.656,0,.375-.094.468-.094.468h-.843c-1.592,0-3.372.656-3.372,2.81,0,1.686,1.124,2.061,1.78,2.061a2.815,2.815,0,0,0,1.967-.843l-.094.749h1.686l.749-5.152c0-2.155-1.874-2.248-2.623-2.248m1.405,4.028A3.067,3.067,0,0,1,12.74,32.6a.731.731,0,0,1-.749-.749c0-.468.281-1.124,1.686-1.124A7.653,7.653,0,0,0,14.988,30.819Z"/><path class="j" d="M15.925,34a7.928,7.928,0,0,0,2.155.187c.468,0,2.81.094,2.81-2.436,0-2.342-2.248-1.874-2.248-2.81,0-.468.375-.656,1.03-.656.281,0,1.311.094,1.311.094l.281-1.686a7.116,7.116,0,0,0-1.78-.187c-1.405,0-1.874.562-1.874,2.436,0,2.155,1.405,1.967,1.405,2.81,0,.562-.656.656-1.124.656"/><path class="j" d="M54.987,27.634a2.6,2.6,0,0,0-1.78-.937c-1.686,0-2.248,2.061-2.248,4.5,0,1.5-.187,3.091,1.405,3.091a2.5,2.5,0,0,0,1.78-.749l-.094.656h1.874L57.329,25.2M54.894,30.07c0,1.03-.843,2.342-1.874,2.342-.656,0-1.03-.562-1.03-1.5,0-1.5.656-2.436,1.5-2.436A1.431,1.431,0,0,1,54.894,30.07Z"/><path class="j" d="M3.466,34.1,4.59,27.353,4.777,34.1H6.089l2.436-6.745L7.494,34.1H9.461l1.5-8.993H8.618L6,30.632,5.9,25.1H4.871L1.686,34.1Z"/><path class="j" d="M30.538,34.1h1.967c.562-3.091.656-5.621,1.967-5.152a7.352,7.352,0,0,1,.656-2.155h-.375c-.843,0-1.5,1.124-1.5,1.124l.187-1.03"/><path class="j" d="M41.592,28.665a5.537,5.537,0,0,1,2.061-.375c.656,0,1.218.094,1.218.656,0,.375-.094.468-.094.468h-.843c-1.592,0-3.372.656-3.372,2.81,0,1.686,1.124,2.061,1.78,2.061a2.815,2.815,0,0,0,1.967-.843l-.094.749H45.9l.749-5.152c0-2.155-1.874-2.248-2.623-2.248m1.405,4.028a3.067,3.067,0,0,1-2.248,1.78.731.731,0,0,1-.749-.749c0-.468.281-1.124,1.686-1.124A8.241,8.241,0,0,0,45.432,30.819Z"/><path class="j" d="M46.275,34.1h1.967c.562-3.091.656-5.621,1.967-5.152a7.352,7.352,0,0,1,.656-2.155h-.375c-.843,0-1.5,1.124-1.5,1.124l.187-1.03"/></g></g></svg>