<svg xmlns="http://www.w3.org/2000/svg" xmlns:xlink="http://www.w3.org/1999/xlink" width="59.015" height="35.409" viewBox="0 0 59.015 35.409"><defs><style>.a{fill:#fff;stroke:#707070;}.b{clip-path:url(#a);}.c{fill:#3c58bf;}.d{fill:#293688;}.e{fill:#ffbc00;}.f{fill:#f7981d;}.g{fill:#ed7c00;}.h{fill:#051244;}</style><clipPath id="a"><rect class="a" width="59.015" height="35.409" transform="translate(1335 6885)"/></clipPath></defs><g class="b" transform="translate(-1335 -6885)"><g transform="translate(1335 6893.759)"><path class="c" d="M33,49.076l3-16.862h4.684l-2.9,16.862Z" transform="translate(-11.361 -31.652)"/><path class="d" d="M33,49.076l3.841-16.862h3.841l-2.9,16.862Z" transform="translate(-11.361 -31.652)"/><path class="c" d="M58.618,32.107a11.881,11.881,0,0,0-4.309-.749c-4.684,0-8.056,2.342-8.056,5.714,0,2.529,2.342,3.841,4.215,4.684S52.9,43.16,52.9,43.91c0,1.124-1.5,1.686-2.81,1.686a10.182,10.182,0,0,1-4.5-.937l-.656-.281-.656,3.841a15.189,15.189,0,0,0,5.339.937c4.965,0,8.243-2.342,8.243-5.9,0-1.967-1.218-3.466-4.028-4.684-1.686-.843-2.717-1.311-2.717-2.155,0-.749.843-1.5,2.717-1.5a8.592,8.592,0,0,1,3.56.656l.468.187.749-3.653Z" transform="translate(-15.246 -31.357)"/><path class="d" d="M58.618,32.107a11.881,11.881,0,0,0-4.309-.749c-4.684,0-7.213,2.342-7.213,5.714,0,2.529,1.5,3.841,3.372,4.684S52.9,43.16,52.9,43.91c0,1.124-1.5,1.686-2.81,1.686a10.182,10.182,0,0,1-4.5-.937l-.656-.281-.656,3.841a15.189,15.189,0,0,0,5.339.937c4.965,0,8.243-2.342,8.243-5.9,0-1.967-1.218-3.466-4.028-4.684-1.686-.843-2.717-1.311-2.717-2.155,0-.749.843-1.5,2.717-1.5a8.592,8.592,0,0,1,3.56.656l.468.187.749-3.653Z" transform="translate(-15.246 -31.357)"/><path class="c" d="M73.461,32.214c-1.124,0-1.967.094-2.436,1.218L64,49.076h5.058L70,46.266h6l.562,2.81h4.5L77.115,32.214ZM71.307,43.455c.281-.843,1.873-4.965,1.873-4.965s.375-1.03.656-1.686l.281,1.592s.937,4.215,1.124,5.152H71.307Z" transform="translate(-22.034 -31.652)"/><path class="d" d="M74.585,32.214c-1.124,0-1.967.094-2.436,1.218L64,49.076h5.058L70,46.266h6l.562,2.81h4.5L77.115,32.214ZM71.307,43.455c.375-.937,1.874-4.965,1.874-4.965s.375-1.03.656-1.686l.281,1.592s.937,4.215,1.124,5.152H71.307Z" transform="translate(-22.034 -31.652)"/><path class="c" d="M16.168,44.067,15.7,41.631a13.579,13.579,0,0,0-6.557-7.4l4.215,14.988h5.058L26,32.357H20.946Z" transform="translate(-3.148 -31.701)"/><path class="d" d="M16.168,44.067,15.7,41.631a13.579,13.579,0,0,0-6.557-7.4l4.215,14.988h5.058L26,32.357H21.883Z" transform="translate(-3.148 -31.701)"/><path class="e" d="M0,32.214l.843.187c6,1.405,10.117,4.965,11.709,9.18l-1.686-7.962c-.281-1.124-1.124-1.405-2.155-1.405Z" transform="translate(0 -31.652)"/><path class="f" d="M0,32.214H0c6,1.405,10.96,5.058,12.552,9.274L10.96,34.837a2.287,2.287,0,0,0-2.248-1.78Z" transform="translate(0 -31.652)"/><path class="g" d="M0,32.214H0c6,1.405,10.96,5.058,12.552,9.274l-1.124-3.653c-.281-1.124-.656-2.248-1.967-2.717Z" transform="translate(0 -31.652)"/><g transform="translate(6.089 2.436)"><path class="h" d="M20.9,44.439l-3.185-3.185-1.5,3.56-.375-2.342a13.579,13.579,0,0,0-6.557-7.4L13.5,50.059H18.56Z" transform="translate(-9.286 -35.071)"/><path class="h" d="M37.777,55.765l-4.028-4.122L33,55.765Z" transform="translate(-17.45 -40.777)"/><path class="h" d="M52.435,49.071h0c.375.375.562.656.468,1.03,0,1.124-1.5,1.686-2.81,1.686a10.182,10.182,0,0,1-4.5-.937l-.656-.281-.656,3.841a15.189,15.189,0,0,0,5.339.937c3,0,5.433-.843,6.838-2.342Z" transform="translate(-21.335 -39.891)"/><path class="h" d="M65,51.486h4.4l.937-2.81h6l.562,2.81h4.5L79.8,44.647l-5.62-5.433.281,1.5s.937,4.215,1.124,5.152H71.651c.375-.937,1.873-4.965,1.873-4.965s.375-1.03.656-1.686" transform="translate(-28.467 -36.498)"/></g></g></g></svg>