<svg xmlns="http://www.w3.org/2000/svg" width="150" height="150" viewBox="0 0 222 222"><defs><style>.our-process-class{fill:#d99107 ;}.b{fill:#fff;}</style></defs><g transform="translate(-849 -6056)"><circle class="our-process-class" cx="111" cy="111" r="111" transform="translate(849 6056)"/><g transform="translate(914.445 6108.615)"><g transform="translate(10 6.885)"><path class="b" d="M86.438,101.194H18.175V9.258H86.438V40.831H88.81V6.885H15.8v7.4H10v95.6H73.965v-6.319H88.81V67.131H86.438Zm-14.845,6.319H12.373V16.654H15.8v86.912h55.79Z" transform="translate(-10 -6.885)"/><rect class="b" width="15.497" height="2.373" transform="translate(15.347 7.397)"/><rect class="b" width="54.249" height="2.373" transform="translate(15.347 20.698)"/><rect class="b" width="54.249" height="2.373" transform="translate(15.347 32.759)"/><rect class="b" width="46.142" height="2.373" transform="translate(15.347 45.017)"/><rect class="b" width="35.484" height="2.373" transform="translate(15.347 56.88)"/><rect class="b" width="27.524" height="2.373" transform="translate(15.347 69.733)"/><rect class="b" width="37.726" height="2.373" transform="translate(15.347 82.495)"/><path class="b" d="M51.982,68.945,49.258,80.73l11.764-2.668-.023-.1.189.189L101.741,37.6l-9.348-9.347L51.841,68.8Zm.439,8.633,1.54-6.654L59.1,76.063ZM89.413,46.572,68.621,67.365l-5.993-5.994L83.418,40.58ZM85.1,38.9l.754-.753,5.992,5.993-.752.752Zm13.288-1.3L93.52,42.465l-5.992-5.993,4.864-4.864ZM60.95,63.048l5.993,5.994L61.187,74.8,55.194,68.8Z" transform="translate(-2.687 -2.904)"/><path class="b" d="M71.211,13.12H55.542V24.247H71.211Zm-2.373,8.755H57.915V15.493H68.838Z" transform="translate(-1.516 -5.723)"/><path class="b" d="M59.333,78.388a6.13,6.13,0,1,0,6.13-6.13A6.137,6.137,0,0,0,59.333,78.388Zm9.887,0a3.757,3.757,0,1,1-3.757-3.757A3.762,3.762,0,0,1,69.22,78.388Z" transform="translate(-0.81 5.293)"/><rect class="b" width="5.329" height="2.373" transform="translate(33.089 7.397)"/></g></g></g></svg>