<svg xmlns="http://www.w3.org/2000/svg" width="150" height="150" viewBox="0 0 222 222"><defs><style>.our-process-class{fill:#d99107;}.b{fill:#fff;}</style></defs><g transform="translate(-1376 -6056)"><circle class="our-process-class" cx="111" cy="111" r="111" transform="translate(1376 6056)"/><g transform="translate(1422 6099)"><path class="b" d="M70.5,62.4H66.7V57.8a9.527,9.527,0,0,0,5.7-8.7V41.5A9.5,9.5,0,0,0,62.9,32H59.1a9.5,9.5,0,0,0-9.5,9.5v7.6a9.527,9.527,0,0,0,5.7,8.7v4.6H51.5A9.5,9.5,0,0,0,42,71.9V87.1A1.9,1.9,0,0,0,43.9,89H78.1A1.9,1.9,0,0,0,80,87.1V71.9A9.5,9.5,0,0,0,70.5,62.4ZM59.1,35.8h3.8a5.717,5.717,0,0,1,5.7,5.7H65.579l-1.33-1.349a1.913,1.913,0,0,0-1.957-.456L56.9,41.5H53.4A5.717,5.717,0,0,1,59.1,35.8ZM53.4,49.1V45.3h3.8a2.251,2.251,0,0,0,.608-.1l4.579-1.539,1.064,1.083A1.963,1.963,0,0,0,64.8,45.3h3.8v3.8a5.717,5.717,0,0,1-5.7,5.7H59.1A5.717,5.717,0,0,1,53.4,49.1Zm9.5,9.5v3.8H59.1V58.6Zm4.959,7.6-2.527,7.6H56.668l-2.527-7.6Zm8.341,19H45.8V71.9a5.685,5.685,0,0,1,4.389-5.529L53.5,76.308A1.927,1.927,0,0,0,55.3,77.6H66.7a1.927,1.927,0,0,0,1.805-1.292l3.306-9.937A5.685,5.685,0,0,1,76.2,71.9Z" transform="translate(36 27)"/><path class="b" d="M30.5,32.4H26.7V27.8a9.527,9.527,0,0,0,5.7-8.7V11.5A9.5,9.5,0,0,0,22.9,2H19.1a9.5,9.5,0,0,0-9.5,9.5v7.6a9.527,9.527,0,0,0,5.7,8.7v4.6H11.5A9.5,9.5,0,0,0,2,41.9V57.1A1.9,1.9,0,0,0,3.9,59H38.1A1.9,1.9,0,0,0,40,57.1V41.9A9.5,9.5,0,0,0,30.5,32.4ZM19.1,5.8h3.8a5.717,5.717,0,0,1,5.7,5.7H25.579l-1.33-1.349a1.913,1.913,0,0,0-1.957-.456L16.9,11.5H13.4a5.717,5.717,0,0,1,5.7-5.7ZM13.4,19.1V15.3h3.8a2.251,2.251,0,0,0,.608-.1l4.579-1.539,1.064,1.083A1.963,1.963,0,0,0,24.8,15.3h3.8v3.8a5.717,5.717,0,0,1-5.7,5.7H19.1a5.717,5.717,0,0,1-5.7-5.7Zm9.5,9.5v3.8H19.1V28.6Zm4.959,7.6-2.527,7.6H16.668l-2.527-7.6Zm8.341,19H5.8V41.9a5.685,5.685,0,0,1,4.389-5.529L13.5,46.308A1.927,1.927,0,0,0,15.3,47.6H26.7a1.927,1.927,0,0,0,1.8-1.292l3.306-9.937A5.685,5.685,0,0,1,36.2,41.9Z" transform="translate(0 0)"/><path class="b" d="M47.579,67.142V49.7a5.717,5.717,0,0,0-5.7-5.7h-30.4a5.717,5.717,0,0,0-5.7,5.7V67.142A5.7,5.7,0,0,0,7.679,78.2h38a5.7,5.7,0,0,0,1.9-11.058ZM9.579,49.7a1.9,1.9,0,0,1,1.9-1.9h30.4a1.9,1.9,0,0,1,1.9,1.9V66.8h-13.3a1.9,1.9,0,0,0-1.9,1.9h-3.8a1.9,1.9,0,0,0-1.9-1.9H9.579Zm36.1,24.7h-38a1.9,1.9,0,0,1,0-3.8h13.3a1.9,1.9,0,0,0,1.9,1.9h7.6a1.9,1.9,0,0,0,1.9-1.9h13.3a1.9,1.9,0,0,1,0,3.8Z" transform="translate(0.021 37.8)"/><path class="b" d="M14,50h3.8v3.8H14Z" transform="translate(10.8 43.2)"/><path class="b" d="M18,50h3.8v3.8H18Z" transform="translate(14.4 43.2)"/><path class="b" d="M10,50h3.8v3.8H10Z" transform="translate(7.2 43.2)"/><path class="b" d="M81.579,25.142V7.7a5.717,5.717,0,0,0-5.7-5.7h-30.4a5.717,5.717,0,0,0-5.7,5.7V25.142a5.7,5.7,0,0,0,1.9,11.058h38a5.7,5.7,0,0,0,1.9-11.058ZM43.579,7.7a1.9,1.9,0,0,1,1.9-1.9h30.4a1.9,1.9,0,0,1,1.9,1.9V24.8h-13.3a1.9,1.9,0,0,0-1.9,1.9h-3.8a1.9,1.9,0,0,0-1.9-1.9h-13.3Zm36.1,24.7h-38a1.9,1.9,0,1,1,0-3.8h13.3a1.9,1.9,0,0,0,1.9,1.9h7.6a1.9,1.9,0,0,0,1.9-1.9h13.3a1.9,1.9,0,1,1,0,3.8Z" transform="translate(30.621 0)"/><path class="b" d="M48,8h3.8v3.8H48Z" transform="translate(41.4 5.4)"/><path class="b" d="M52,8h3.8v3.8H52Z" transform="translate(45 5.4)"/><path class="b" d="M44,8h3.8v3.8H44Z" transform="translate(37.8 5.4)"/><path class="b" d="M13.678,50.146l3.384-1.729a39.5,39.5,0,0,1-4.18-14.506L9.1,34.252a43.32,43.32,0,0,0,4.581,15.894Z" transform="translate(6.387 28.719)"/><path class="b" d="M28.507,53.631l-.688,3.737a44.014,44.014,0,0,0,7.944.72A43.51,43.51,0,0,0,51.655,55.11l-1.383-3.542a40.253,40.253,0,0,1-21.764,2.063Z" transform="translate(23.237 44.611)"/><path class="b" d="M54.9,37.781l3.785-.342a43.263,43.263,0,0,0-4.588-15.894L50.71,23.274A39.452,39.452,0,0,1,54.9,37.781Z" transform="translate(43.839 17.59)"/><path class="b" d="M43.291,12.8a40.4,40.4,0,0,1,7.253.657l.691-3.737A44.014,44.014,0,0,0,43.291,9a43.525,43.525,0,0,0-23.837,7.07l2.075,3.19A39.735,39.735,0,0,1,43.291,12.8Z" transform="translate(15.709 6.3)"/></g></g></svg>