<svg xmlns="http://www.w3.org/2000/svg" width="96.188" height="115.886" viewBox="0 0 96.188 115.886"><defs><style>.a{fill:#fff;}</style></defs><g transform="translate(-39.866)"><path class="a" d="M71.689,54.958V38.112h1.775a1.815,1.815,0,0,0,0-3.63H64.4c0-.053.007-.1,0-.158-.039-.485-.748-11.97,17.068-19.964a1.815,1.815,0,1,0-1.486-3.312,41.2,41.2,0,0,0-11.716,7.586A10.906,10.906,0,0,1,74.5,6.529c2.9-1.388,6.185-1.538,9.661-1.7a42.3,42.3,0,0,0,7.216-.747c.392,2.845.643,8.5-2.474,12.939-2.653,3.78-7.264,5.993-13.7,6.576a1.815,1.815,0,0,0,.161,3.622c.055,0,.11,0,.166-.008,7.566-.685,13.071-3.421,16.364-8.131,5.288-7.563,2.772-17.325,2.662-17.737A1.815,1.815,0,0,0,92.224.094,30.152,30.152,0,0,1,84,1.207c-3.686.168-7.5.341-11.062,2.047a14.457,14.457,0,0,0-7.6,18.331,1.785,1.785,0,0,0,.088.18c-4.763,6.13-4.714,11.661-4.653,12.717H48.056a1.815,1.815,0,1,0,0,3.63h1.775V54.957C37.675,59.45,29,70.31,29,84.125a31.761,31.761,0,1,0,63.522,0C92.521,70.31,83.845,59.452,71.689,54.958ZM60.76,112.522A28.206,28.206,0,0,1,33.987,92.829a22.462,22.462,0,0,0,10.759,2.44,35.047,35.047,0,0,0,9.714-1.418c2.2-.65,4.335-1.438,6.4-2.2A51.675,51.675,0,0,1,71.9,88.463c6.945-.932,12.562-.352,16.356,1.645A28.239,28.239,0,0,1,60.76,112.522ZM88.8,86.322C84.4,84.4,78.57,83.9,71.417,84.866A55.208,55.208,0,0,0,59.6,88.245c-2.007.742-4.081,1.51-6.166,2.124-6.383,1.884-15.556,2.288-20.4-2.764a1.793,1.793,0,0,0-.205-.175,28.8,28.8,0,0,1-.2-3.306c0-11.683,7.073-21.555,18.46-25.763l2.371-.877V52.631h1.855a1.815,1.815,0,0,0,0-3.63H53.461v-3.63h1.855a1.815,1.815,0,1,0,0-3.63H53.461v-3.63h14.6v3.63H66.2a1.815,1.815,0,1,0,0,3.63H68.06V49H66.2a1.815,1.815,0,1,0,0,3.63H68.06v4.855l2.371.877c11.386,4.209,18.46,14.081,18.46,25.762,0,.74-.037,1.471-.092,2.2Z" transform="translate(27.2 0)"/><path class="a" d="M41.924,28.8a16.263,16.263,0,0,0,8.915,2.462,25.98,25.98,0,0,0,6.859-1A1.815,1.815,0,0,0,59,28.19c-.061-.339-1.556-8.353-8.174-12.423-4.2-2.586-9.424-2.969-15.516-1.14a1.815,1.815,0,0,0-1.268,2.043C34.1,16.995,35.479,24.693,41.924,28.8Zm6.982-9.954c3.623,2.217,5.352,6.124,6.077,8.336-4.427.907-8.149.429-11.083-1.428a15.077,15.077,0,0,1-5.849-8.1c4.305-.986,7.95-.588,10.855,1.189Z" transform="translate(26.735 -1.249)"/><path class="a" d="M71.445,77a5.445,5.445,0,1,0,5.445,5.445A5.445,5.445,0,0,0,71.445,77Zm0,7.259a1.815,1.815,0,1,1,1.815-1.815A1.815,1.815,0,0,1,71.445,84.259Z" transform="translate(23.775 -7.127)"/><circle class="a" cx="1.878" cy="1.878" r="1.878" transform="translate(85.219 62.596)"/><path class="a" d="M47.352,81A6.352,6.352,0,1,0,53.7,87.352,6.352,6.352,0,0,0,47.352,81Zm0,9.074a2.722,2.722,0,1,1,2.722-2.722,2.722,2.722,0,0,1-2.722,2.722Z" transform="translate(26.089 -7.498)"/><path class="a" d="M16.445,30a5.445,5.445,0,1,0,5.445,5.445A5.445,5.445,0,0,0,16.445,30Zm0,7.259a1.815,1.815,0,1,1,1.815-1.815A1.815,1.815,0,0,1,16.445,37.259Z" transform="translate(28.866 -2.777)"/><path class="a" d="M41.334,49.167a8.167,8.167,0,1,0-8.167,8.167A8.167,8.167,0,0,0,41.334,49.167Zm-12.7,0A4.537,4.537,0,1,1,33.167,53.7a4.537,4.537,0,0,1-4.537-4.537Z" transform="translate(27.57 -3.795)"/><path class="a" d="M110.445,30a5.445,5.445,0,1,0,5.445,5.445A5.445,5.445,0,0,0,110.445,30Zm0,7.259a1.815,1.815,0,1,1,1.815-1.815A1.815,1.815,0,0,1,110.445,37.259Z" transform="translate(20.165 -2.777)"/><path class="a" d="M93.167,41a8.167,8.167,0,1,0,8.167,8.167A8.167,8.167,0,0,0,93.167,41Zm0,12.7A4.537,4.537,0,1,1,97.7,49.167,4.537,4.537,0,0,1,93.167,53.7Z" transform="translate(22.016 -3.795)"/></g></svg>