<svg xmlns="http://www.w3.org/2000/svg" width="123.99" height="110.885" viewBox="0 0 123.99 110.885"><defs><style>.a{fill:#fff;}</style></defs><g transform="translate(-6.728 -4.364)"><g transform="translate(6.728 4.364)"><path class="a" d="M123.053,111.375H105.81a14.954,14.954,0,0,0,.387-2.906c0-2.131-1.162-4.262-3.1-6.2-2.325-2.131-2.712-6.781-2.519-8.524a2.017,2.017,0,0,0-1.356-1.937,1.762,1.762,0,0,0-2.131.581c-5.037,6.781-7.362,12.593-6.587,17.242a4.56,4.56,0,0,0,.387,1.55H82.756c-1.55-7.362-8.718-12.98-17.63-13.755V90.452h52.5a1.937,1.937,0,1,0,0-3.875h-7.556a20.636,20.636,0,0,0,8.718-16.855,20.946,20.946,0,0,0-13.755-19.567V24.776h2.519a1.937,1.937,0,1,0,0-3.875H100.58c1.55-8.912-.775-16.467-9.106-13.755-9.88,3.1-21.117-.194-36.81-2.519C39.553,2.3,28.9,16.058,26.379,19.739H20.373a6.62,6.62,0,0,0-6.393,6.587,6.345,6.345,0,0,0,3.875,5.812v49.4a8.635,8.635,0,0,0,1.55,5.037H7.974a1.937,1.937,0,0,0,0,3.875H61.058v6.974c-8.912.581-16.274,6.2-17.824,13.755H2.937a1.937,1.937,0,0,0,0,3.875H93.605c.387.194.775,0,.969,0h7.362c.194,0,.387.194.581.194s.387,0,.387-.194h20.148a1.83,1.83,0,0,0,1.937-1.937C124.99,111.956,124.215,111.375,123.053,111.375Zm-9.3-47.852a17.065,17.065,0,0,1,1.162,6.393A16.827,16.827,0,0,1,98.255,86.771h-.387A16.7,16.7,0,0,1,81.206,69.916a15.787,15.787,0,0,1,1.162-6.006c2.519-.581,10.074-2.131,14.724.581a12.042,12.042,0,0,0,6.393,1.55C107.36,66.041,111.429,64.491,113.754,63.523ZM101.161,24.776V51.7a2.333,2.333,0,0,0,1.356,1.937,16.725,16.725,0,0,1,9.106,6.587c-3.293,1.55-9.106,3.293-12.786.969-4.262-2.712-10.268-2.325-14.143-1.744a16.506,16.506,0,0,1,8.524-5.812A1.925,1.925,0,0,0,94.574,51.7V24.776ZM33.547,80.765a6.006,6.006,0,0,1-12.012,0V78.053h2.519a1.937,1.937,0,0,0,0-3.875H21.536V68.56h2.519a1.937,1.937,0,1,0,0-3.875H21.536V59.067h2.519a1.937,1.937,0,0,0,0-3.875H21.536V49.574h2.519a1.937,1.937,0,1,0,0-3.875H21.536V40.081h2.519a1.937,1.937,0,1,0,0-3.875H21.536V32.719H33.547ZM20.373,28.844a2.519,2.519,0,1,1,0-5.037H34.9a2.565,2.565,0,0,1,2.519,2.519h0A2.565,2.565,0,0,1,34.9,28.844Zm40.684-2.519V86.771H35.872a9.6,9.6,0,0,0,1.55-5.037v-49.4A6.345,6.345,0,0,0,41.3,26.519,6.62,6.62,0,0,0,34.9,19.932H31.61C35.485,15.283,43.815,6.952,54.471,8.7c16.08,2.519,27.51,6.006,38.553,2.325,5.231-1.744,5.037,4.65,3.875,10.074H89.149a1.937,1.937,0,1,0,0,3.875H91.28V50.542A20.946,20.946,0,0,0,77.525,70.11a20.635,20.635,0,0,0,8.718,16.855H64.932V26.326a1.937,1.937,0,0,0-3.875,0Zm-13.949,85.05c1.744-5.812,8.137-9.88,15.693-9.88s13.949,4.262,15.692,9.88Zm54.633,0H94.961c-.775-1.162-2.131-4.843,2.325-12.205a13.03,13.03,0,0,0,3.1,5.812,4.955,4.955,0,0,1,1.937,3.681A6.837,6.837,0,0,1,101.742,111.375Z" transform="translate(-1 -4.364)"/></g></g></svg>