<svg xmlns="http://www.w3.org/2000/svg" width="88.37" height="80.089" viewBox="0 0 88.37 80.089"><defs><style>.application-class{fill:#d99107;}</style></defs><g transform="translate(0.007 -3.982)"><path class="application-class" d="M102.866,8.709a5.8,5.8,0,0,0-6.33-2.23,4.48,4.48,0,0,0-3.065,4.432V44.737a1.381,1.381,0,0,0,2.761,0V10.911A1.7,1.7,0,0,1,97.4,9.1a2.975,2.975,0,0,1,3.106,1.07c2.761,9.664,8.974,35.462,6.013,42.869l-9.23,22.85H82.26a1.381,1.381,0,0,0,0,2.761H97.185v3.362H72.761V72.688L83.7,57.6a3.942,3.942,0,0,1,2.6-1.581,4.011,4.011,0,0,1,3.01.69A3.817,3.817,0,0,1,90.9,59.814a3.769,3.769,0,0,1-.6,2.071l-4.943,7.7a1.382,1.382,0,1,0,2.326,1.491l4.929-7.7a6.524,6.524,0,0,0,1.042-3.541,6.641,6.641,0,0,0-2.713-5.329,6.744,6.744,0,0,0-5.067-1.222,6.675,6.675,0,0,0-4.4,2.692L70.262,71.432a1.381,1.381,0,0,0-.262.808V83.395a1.381,1.381,0,0,0,1.381,1.381H98.558a1.381,1.381,0,0,0,1.381-1.381v-6.7l9.133-22.622c3.99-9.885-5.578-43.49-5.992-44.919a1.381,1.381,0,0,0-.214-.442Z" transform="translate(-21.68 -0.704)"/><path class="application-class" d="M28.577,56.094a6.731,6.731,0,0,0-12.2,3.859,6.517,6.517,0,0,0,1.035,3.534L22.35,71.2a1.383,1.383,0,1,0,2.326-1.5L19.741,62a3.762,3.762,0,0,1-.6-2.071,3.817,3.817,0,0,1,1.567-3.079,4.011,4.011,0,0,1,3.01-.69,3.942,3.942,0,0,1,2.6,1.588L37.275,72.8v9.326H12.858V78.765H27.783a1.381,1.381,0,0,0,0-2.761H12.755l-9.23-22.87C.536,45.726,6.777,19.943,9.531,10.264a2.5,2.5,0,0,1,2.761-.815A2.237,2.237,0,0,1,13.8,11.714V44.849a1.381,1.381,0,0,0,2.761,0V11.714a5.012,5.012,0,0,0-3.452-4.832A5.281,5.281,0,0,0,7.156,8.849a1.381,1.381,0,0,0-.221.442C6.542,10.685-3.026,44.3.964,54.182L10.1,76.8v6.7a1.381,1.381,0,0,0,1.381,1.381H38.656a1.381,1.381,0,0,0,1.381-1.381V72.351a1.381,1.381,0,0,0-.262-.808Z" transform="translate(0 -0.816)"/><path class="application-class" d="M77.7,44.723V18.491a1.381,1.381,0,0,0-.69-1.208L53.542,4.167a1.381,1.381,0,0,0-1.381,0L28.69,17.283A1.381,1.381,0,0,0,28,18.491V44.723a1.381,1.381,0,0,0,.69,1.208L52.161,59.047a1.381,1.381,0,0,0,1.381,0L77.013,45.931A1.381,1.381,0,0,0,77.7,44.723Zm-2.761-.808L52.851,56.258,30.761,43.916V19.3L52.851,6.956,74.942,19.3Z" transform="translate(-8.673)"/><path class="application-class" d="M65.806,34.523h-.69V31.761A2.761,2.761,0,0,0,62.355,29H58.213a2.761,2.761,0,0,0-2.761,2.761v2.761h-.69A2.761,2.761,0,0,0,52,37.284v8.284a2.761,2.761,0,0,0,2.761,2.761H65.806a2.761,2.761,0,0,0,2.761-2.761V37.284A2.761,2.761,0,0,0,65.806,34.523Zm-7.593-2.761h4.142v2.761H58.213ZM61.4,45.568V43.794a2.216,2.216,0,1,0-2.237,0v1.774h-4.4V37.284H65.806v8.284Z" transform="translate(-16.106 -7.748)"/><path class="application-class" d="M40,36.625A16.568,16.568,0,0,0,56.568,53.192a1.381,1.381,0,1,0,0-2.761A13.806,13.806,0,1,1,69.836,32.883a4.832,4.832,0,1,0,2.761-.318A16.568,16.568,0,0,0,40,36.625Zm31.755-1.381a2.071,2.071,0,1,1-2.071,2.071A2.071,2.071,0,0,1,71.755,35.244Z" transform="translate(-12.389 -5.018)"/></g></svg>