<svg xmlns="http://www.w3.org/2000/svg" width="119.5" height="119.515" viewBox="0 0 119.5 119.515"><defs><style>.application-class{fill:#D99107;}</style></defs><g transform="translate(-11.083 -1.99)"><g transform="translate(11.083 1.99)"><path class="application-class" d="M112.431,80.436a1.991,1.991,0,1,0-2.816,2.816l7.313,7.311a1.992,1.992,0,0,1,0,2.818L111.3,99.014a2.037,2.037,0,0,1-2.816,0L88.763,79.3a1.992,1.992,0,0,1,0-2.816L94.4,70.847a1.992,1.992,0,0,1,2.816,0l6.771,6.771A1.991,1.991,0,1,0,106.8,74.8l-6.772-6.771a5.961,5.961,0,0,0-6.781-1.149l-8.289-8.287a35.615,35.615,0,0,0,6.261-15.72L95.672,45.1a5.778,5.778,0,0,0-.068.723,5.975,5.975,0,1,0,11.949,0,5.907,5.907,0,0,0-1.287-3.659l7.917-12.437a5.9,5.9,0,0,0,1.336.163,5.975,5.975,0,1,0-5.975-5.975,5.907,5.907,0,0,0,1.287,3.659l-7.916,12.437a5.841,5.841,0,0,0-5.473,1.518L91.583,38.6c0-.249.038-.49.038-.741A35.97,35.97,0,0,0,76.851,8.905a1.991,1.991,0,1,0-2.346,3.219,31.467,31.467,0,1,1-6.54-3.7,1.992,1.992,0,1,0,1.526-3.68A35.8,35.8,0,0,0,21.758,49.107l-4.622,3.631a5.959,5.959,0,1,0-5.178,10.645v6.341H3.992A1.992,1.992,0,0,0,2,71.715v47.8A1.992,1.992,0,0,0,3.992,121.5h7.966a1.992,1.992,0,1,0,0-3.983H5.983V105.572H57.764v11.949H19.924a1.992,1.992,0,1,0,0,3.983H59.756a1.992,1.992,0,0,0,1.992-1.992V79.682a1.992,1.992,0,0,0-3.983,0v5.975H5.983V73.707h25.89a1.992,1.992,0,1,0,0-3.983H15.941V63.383a5.855,5.855,0,0,0,3.647-7.506l3.722-2.92A35.721,35.721,0,0,0,76.517,67.045L84.8,75.334a5.975,5.975,0,0,0,1.147,6.781l19.717,19.717a5.975,5.975,0,0,0,8.45,0L119.75,96.2a5.975,5.975,0,0,0,0-8.45Zm3.089-58.51a1.992,1.992,0,1,1-1.992,1.992A1.992,1.992,0,0,1,115.52,21.926ZM101.579,43.833a1.992,1.992,0,1,1-1.992,1.992A1.992,1.992,0,0,1,101.579,43.833ZM57.764,89.639v11.949H5.983V89.639ZM13.949,59.766a1.992,1.992,0,1,1,1.992-1.992A1.992,1.992,0,0,1,13.949,59.766ZM82.46,61.72l7.721,7.721-2.816,2.816-7.731-7.711A36.152,36.152,0,0,0,82.46,61.72Z" transform="translate(-2 -1.99)"/><path class="application-class" d="M42.886,57.843a23.7,23.7,0,0,1-14.078-4.618,2,2,0,0,0-2.352,3.224,27.948,27.948,0,1,0-6.074-6.074A1.992,1.992,0,1,0,23.6,48.023a23.939,23.939,0,0,1-3.414-6.648l5.576-4.381a5.861,5.861,0,0,0,5.389.506l6.56,7.48a5.905,5.905,0,0,0-.8,2.906,5.975,5.975,0,1,0,9.97-4.411l5.644-13.543c.108,0,.2.032.319.032a5.947,5.947,0,0,0,4.136-1.681l9.759,4.883c0,.261.04.518.04.781a23.925,23.925,0,0,1-23.893,23.9ZM26.953,31.953a1.992,1.992,0,1,1,1.992,1.992A1.992,1.992,0,0,1,26.953,31.953ZM42.886,49.877a1.992,1.992,0,1,1,1.992-1.992A1.992,1.992,0,0,1,42.886,49.877Zm9.958-23.9a1.992,1.992,0,1,1,1.992-1.992A1.992,1.992,0,0,1,52.843,25.978Zm5.9-1.269a5.777,5.777,0,0,0,.074-.723A5.975,5.975,0,1,0,48.846,28.4L43.2,41.939c-.108,0-.209-.032-.319-.032a5.923,5.923,0,0,0-2.2.432l-6.55-7.484a5.9,5.9,0,0,0,.787-2.9,5.975,5.975,0,1,0-11.949,0,5.887,5.887,0,0,0,.339,1.9l-4.1,3.22a23.879,23.879,0,0,1,46.9-8.679Z" transform="translate(10.887 1.924)"/><circle class="application-class" cx="1.992" cy="1.992" r="1.992" transform="translate(29.874 107.565)"/><circle class="application-class" cx="1.992" cy="1.992" r="1.992" transform="translate(37.84 107.565)"/><circle class="application-class" cx="1.992" cy="1.992" r="1.992" transform="translate(45.806 107.565)"/><path class="application-class" d="M21.933,57.992A1.992,1.992,0,0,0,19.941,56H7.992a1.992,1.992,0,0,0,0,3.983H19.941A1.992,1.992,0,0,0,21.933,57.992Z" transform="translate(1.966 51.565)"/><circle class="application-class" cx="1.992" cy="1.992" r="1.992" transform="translate(29.874 91.633)"/><circle class="application-class" cx="1.992" cy="1.992" r="1.992" transform="translate(37.84 91.633)"/><circle class="application-class" cx="1.992" cy="1.992" r="1.992" transform="translate(45.806 91.633)"/><path class="application-class" d="M7.992,51.983H19.941a1.992,1.992,0,1,0,0-3.983H7.992a1.992,1.992,0,0,0,0,3.983Z" transform="translate(1.966 43.633)"/><circle class="application-class" cx="1.992" cy="1.992" r="1.992" transform="translate(29.874 75.7)"/><circle class="application-class" cx="1.992" cy="1.992" r="1.992" transform="translate(37.84 75.7)"/><circle class="application-class" cx="1.992" cy="1.992" r="1.992" transform="translate(45.806 75.7)"/><path class="application-class" d="M7.992,40a1.992,1.992,0,1,0,0,3.983H19.941a1.992,1.992,0,1,0,0-3.983Z" transform="translate(1.966 35.7)"/></g></g></svg>