<svg xmlns="http://www.w3.org/2000/svg" width="113.75" height="113.75" viewBox="0 0 113.75 113.75"><defs><style>.a{fill:#fff !important;}</style></defs><g transform="translate(0)"><path class="a" d="M15.965,190.9l10.7,5.347v13.29a2.222,2.222,0,0,0,2.222,2.222h23.55a2.222,2.222,0,0,0,2.222-2.222V179.2A13.15,13.15,0,0,0,42.792,166.07c-.026-.007-9.4-1.47-13.746-5.818l-4.989-4.987a8.827,8.827,0,0,0-6.283-2.6V134.887a8.887,8.887,0,1,0-17.773,0v30.179A28.884,28.884,0,0,0,15.965,190.9ZM4.443,134.887a4.443,4.443,0,1,1,8.887,0v18.964a8.885,8.885,0,0,0-1.84,13.979l11.377,11.379a2.222,2.222,0,0,0,3.142-3.142l-11.377-11.38a4.443,4.443,0,0,1,1.66-7.331h0a4.438,4.438,0,0,1,4.621,1.05l4.989,4.987c5.151,5.151,16.406,7.089,16.428,7.1A8.725,8.725,0,0,1,50.21,179.2v28.115H31.1V194.872a2.222,2.222,0,0,0-1.228-1.987l-11.924-5.961A24.307,24.307,0,0,1,4.443,165.066Z" transform="translate(0 -98.007)"/><path class="a" d="M128.222,54.653h53.32a2.222,2.222,0,0,0,2.222-2.222V2.222A2.222,2.222,0,0,0,181.542,0h-53.32A2.222,2.222,0,0,0,126,2.222v50.21A2.222,2.222,0,0,0,128.222,54.653Zm20-50.21h13.33V16.417l-5.771-2.856a2.221,2.221,0,0,0-1.987.008l-5.572,2.815Zm-17.773,0h13.33V20A2.222,2.222,0,0,0,147,21.978l7.8-3.942,7.982,3.951A2.222,2.222,0,0,0,165.99,20V4.443h13.33V50.21H130.443Z" transform="translate(-98.007)"/><path class="a" d="M281.552,176h-13.33a2.222,2.222,0,0,0,0,4.443h13.33a2.222,2.222,0,0,0,0-4.443Z" transform="translate(-206.903 -136.898)"/><circle class="a" cx="2.163" cy="2.163" r="2.163" transform="translate(99.477 85.204)"/><path class="a" d="M311.767,126a8.9,8.9,0,0,0-8.887,8.887V152.66a8.827,8.827,0,0,0-6.283,2.6l-4.99,4.988c-2.733,2.733-9.655,5.407-13.581,5.8l-.148.016A13.154,13.154,0,0,0,266,179.2v30.337a2.222,2.222,0,0,0,2.222,2.222h23.55a2.222,2.222,0,0,0,2.222-2.222v-13.29l7.272-3.635a2.222,2.222,0,0,0-1.987-3.975l-8.5,4.249a2.223,2.223,0,0,0-1.228,1.988v12.441H270.443V179.2a8.729,8.729,0,0,1,7.893-8.711l.149-.016c4.819-.483,12.8-3.613,16.263-7.078l4.99-4.988a4.439,4.439,0,0,1,4.62-1.05h0a4.447,4.447,0,0,1,1.66,7.332l-11.377,11.379a2.222,2.222,0,1,0,3.142,3.142l11.377-11.379a8.885,8.885,0,0,0-1.84-13.979V134.887a4.443,4.443,0,0,1,8.887,0v30.179a24.5,24.5,0,0,1-2.967,11.67,2.222,2.222,0,0,0,3.9,2.122,28.963,28.963,0,0,0,3.506-13.792V134.887A8.9,8.9,0,0,0,311.767,126Z" transform="translate(-206.903 -98.007)"/></g></svg>