<svg xmlns="http://www.w3.org/2000/svg" width="113.488" height="113.75" viewBox="0 0 113.488 113.75"><defs><style>.a{fill:#fff;}</style></defs><g transform="translate(-0.572)"><g transform="translate(0.574 18.347)"><g transform="translate(0)"><path class="a" d="M92.76,160.726l-4.247-12.744a12.843,12.843,0,0,0-9.887-8.573l-12.261-2.231v-.95a18.465,18.465,0,0,0,5.469-4.856h3.7a5.511,5.511,0,0,0,5.5-5.5V103.851a23.851,23.851,0,1,0-47.7,0v12.843a7.351,7.351,0,0,0,5.851,7.186,18.381,18.381,0,0,0,8.827,12.347v.95l-12.263,2.231a12.84,12.84,0,0,0-9.885,8.573l-.734,2.2-6.249-6.249a1.838,1.838,0,0,1,0-2.6l7.247-7.245-13.6-13.6-8.19,8.19a12.843,12.843,0,0,0,0,18.161l24.8,24.8a12.836,12.836,0,0,0,18.1.055l8.937-8.188-2.787-2.781ZM77.372,125.867a1.837,1.837,0,0,1-1.835,1.835H73.995a18.223,18.223,0,0,0,1.2-3.822,7.268,7.268,0,0,0,2.181-.868Zm-1.835-6.014v-6.319a3.638,3.638,0,0,1,0,6.319Zm-36.694,0a3.638,3.638,0,0,1,0-6.319Zm0-12.333v2.1a7.277,7.277,0,0,0-1.835.76v-6.524a20.181,20.181,0,1,1,40.363,0v6.524a7.21,7.21,0,0,0-1.835-.76v-2.1H73.7a20.186,20.186,0,0,1-14.364-5.95l-2.148-2.148-2.148,2.148a20.186,20.186,0,0,1-14.364,5.95Zm3.669,12.843V111.12a23.787,23.787,0,0,0,14.677-6.52,23.777,23.777,0,0,0,14.677,6.52v9.243a14.567,14.567,0,0,1-1.985,7.339H57.191v3.669h9.676a14.654,14.654,0,0,1-24.354-11.008Zm20.181,17.5v.086l-5.5,5.5-5.5-5.5v-.086a18.332,18.332,0,0,0,11.008,0ZM29.348,149.142a9.177,9.177,0,0,1,7.062-6.126l12.824-2.33,7.957,7.957,7.955-7.955,12.823,2.33a9.173,9.173,0,0,1,7.062,6.126l2.64,7.913H49.722l-7.146-7.146-7.94,7.183a1.874,1.874,0,0,1-2.594,0l-4.007-4.007Zm-16.818-23.46,8.414,8.414-1.992,1.992-8.414-8.414ZM44.7,169.05a9.175,9.175,0,0,1-12.973,0l-24.8-24.794a9.175,9.175,0,0,1,0-12.973l1.009-1.009,8.414,8.414-.066.066a5.513,5.513,0,0,0,0,7.785l13.156,13.156a5.475,5.475,0,0,0,3.893,1.613,5.4,5.4,0,0,0,3.825-1.548l.138-.123,8.452,8.452Zm3.761-3.449-8.434-8.434,2.424-2.191L50.87,163.4Z" transform="translate(-0.58 -80)"/></g></g><g transform="translate(77.366)"><path class="a" d="M366.618,0H340.932a5.511,5.511,0,0,0-5.5,5.5V20.181a5.511,5.511,0,0,0,5.5,5.5h4.9l-1.9,11.065,17.7-11.065h4.977a5.511,5.511,0,0,0,5.5-5.5V5.5A5.511,5.511,0,0,0,366.618,0Zm1.835,20.181a1.838,1.838,0,0,1-1.835,1.835h-6.031L348.935,29.3l1.249-7.282h-9.252a1.838,1.838,0,0,1-1.835-1.835V5.5a1.838,1.838,0,0,1,1.835-1.835h25.685A1.838,1.838,0,0,1,368.452,5.5Z" transform="translate(-335.428)"/></g><g transform="translate(84.577 7.484)"><g transform="translate(0 0)"><rect class="a" width="22.451" height="3.742"/></g></g><g transform="translate(84.577 14.967)"><g transform="translate(0 0)"><rect class="a" width="14.967" height="3.742"/></g></g><g transform="translate(103.286 14.967)"><g transform="translate(0 0)"><rect class="a" width="3.742" height="3.742"/></g></g><g transform="translate(0.572 5.504)"><path class="a" d="M57.185,24A51.338,51.338,0,0,0,7.2,63.712l-3.477-5.8L.572,59.8,7.021,70.549,17.767,64.1l-1.888-3.146-4.972,2.983A47.714,47.714,0,0,1,71.319,29.8l1.086-3.5A51.338,51.338,0,0,0,57.185,24Z" transform="translate(-0.572 -24)"/></g><g transform="translate(94.247 34.175)"><path class="a" d="M427.957,155.465l-10.746-6.449-6.447,10.748,3.146,1.888,3.211-5.352a47.742,47.742,0,0,1-8.085,45.45l2.849,2.312a51.378,51.378,0,0,0,8.792-48.685l5.392,3.235Z" transform="translate(-409.036 -149.016)"/></g></g></svg>