<svg xmlns="http://www.w3.org/2000/svg" width="123.426" height="113.188" viewBox="0 0 123.426 113.188"><defs><style>.a{fill:#fff;}</style></defs><g transform="translate(0 -21.232)"><path class="a" d="M379.689,83.784a1.808,1.808,0,0,0,1.808-1.808v-2.43a1.808,1.808,0,1,0-3.616,0v2.43A1.808,1.808,0,0,0,379.689,83.784Z" transform="translate(-286.787 -42.884)"/><path class="a" d="M461.288,169.418a1.808,1.808,0,1,0,0,3.616h2.43a1.808,1.808,0,0,0,0-3.616Z" transform="translate(-348.715 -112.463)"/><path class="a" d="M288.009,169.418a1.808,1.808,0,0,0,0,3.616h2.43a1.808,1.808,0,1,0,0-3.616Z" transform="translate(-217.208 -112.463)"/><path class="a" d="M399.941,408.987a5.823,5.823,0,1,0,5.823,5.823A5.83,5.83,0,0,0,399.941,408.987Zm0,8.03a2.207,2.207,0,1,1,2.207-2.207A2.21,2.21,0,0,1,399.941,417.017Z" transform="translate(-299.11 -294.281)"/><path class="a" d="M144.424,414.81a5.823,5.823,0,1,0,5.823-5.823A5.83,5.83,0,0,0,144.424,414.81Zm8.031,0a2.207,2.207,0,1,1-2.207-2.207A2.21,2.21,0,0,1,152.455,414.81Z" transform="translate(-109.608 -294.281)"/><path class="a" d="M159.123,264.654a5.348,5.348,0,0,0-.042-7.7l-7.515-7.315a6.869,6.869,0,0,0-9.7.131l-1.407,1.446a1.808,1.808,0,0,0,.034,2.557l7.244,7.051-7.244,7.051a1.808,1.808,0,0,0-.034,2.557l1.407,1.446a6.859,6.859,0,0,0,9.7.131Zm-14.667,4.7-.146-.15,7.279-7.086a1.808,1.808,0,0,0,0-2.591l-7.279-7.086.146-.15a3.248,3.248,0,0,1,4.588-.062l7.515,7.315a1.724,1.724,0,0,1,.042,2.516l-7.557,7.356A3.244,3.244,0,0,1,144.455,269.357Z" transform="translate(-106.209 -171.874)"/><path class="a" d="M377.881,130.087a1.808,1.808,0,0,0,1.808,1.808h6.149a1.808,1.808,0,0,0,0-3.616H381.5V117.02a1.808,1.808,0,1,0-3.616,0Z" transform="translate(-286.787 -71.325)"/><path class="a" d="M122.429,101.436H153.56a1.808,1.808,0,1,0,0-3.616H122.429a1.808,1.808,0,0,0,0,3.616Z" transform="translate(-91.544 -58.125)"/><path class="a" d="M91.125,140.183H123.44a1.808,1.808,0,0,0,0-3.616H91.125a1.808,1.808,0,1,0,0,3.616Z" transform="translate(-67.786 -87.532)"/><path class="a" d="M167.816,171.121a1.808,1.808,0,0,0,0,3.616H183.9a1.808,1.808,0,1,0,0-3.616Z" transform="translate(-125.989 -113.756)"/><path class="a" d="M104.583,171.121a1.808,1.808,0,1,0,0,3.616h8.026a1.808,1.808,0,1,0,0-3.616Z" transform="translate(-78 -113.756)"/><path class="a" d="M1.808,278.022H8.42a1.808,1.808,0,1,0,0-3.616H1.808a1.808,1.808,0,1,0,0,3.616Z" transform="translate(0 -192.143)"/><path class="a" d="M6.629,355.47H1.808a1.808,1.808,0,1,0,0,3.616H6.629a1.808,1.808,0,1,0,0-3.616Z" transform="translate(0 -253.665)"/><path class="a" d="M89.741,291.959H83.293a1.808,1.808,0,0,0,0,3.616h6.448a1.808,1.808,0,0,0,0-3.616Z" transform="translate(-61.842 -205.464)"/><path class="a" d="M109.928,84.1a30.618,30.618,0,0,0,13.5-25.333A30.2,30.2,0,0,0,120.154,45a1.808,1.808,0,1,0-3.227,1.632,26.625,26.625,0,0,1,2.882,12.126,26.992,26.992,0,0,1-12.352,22.63L96.932,69.873a6.484,6.484,0,0,0-4.776-2.106H67.541a26.909,26.909,0,0,1,45.51-26.836,1.808,1.808,0,0,0,2.707-2.4A30.547,30.547,0,0,0,106.4,31.39V25.267a4.04,4.04,0,0,0-4.035-4.035H83.444a4.04,4.04,0,0,0-4.035,4.035v6.122A30.536,30.536,0,0,0,63.733,67.768h-46.1a4.407,4.407,0,0,0-4.386,4.043H6.629a1.808,1.808,0,1,0,0,3.616h6.6V92.9H1.808a1.808,1.808,0,0,0,0,3.616H13.225v5.288a1.807,1.807,0,0,0,0,3.614v12.789a3.446,3.446,0,0,0,3.442,3.442h4.864v1.259H15.89a1.808,1.808,0,0,0,0,3.616h7.449a1.808,1.808,0,0,0,1.808-1.808v-3.067H26.8a13.886,13.886,0,0,0,20.7,10.956,1.808,1.808,0,0,0-1.788-3.143,10.26,10.26,0,1,1,4.209-4.52,1.808,1.808,0,0,0,3.264,1.556,13.732,13.732,0,0,0,1.3-4.85H86.989a13.887,13.887,0,0,0,27.684,0H118.4a5.036,5.036,0,0,0,5.03-5.03V101.369a6.439,6.439,0,0,0-1.69-4.354Zm-26.9-58.828a.42.42,0,0,1,.419-.419H102.36a.42.42,0,0,1,.419.419v4.62a30.485,30.485,0,0,0-19.755-.007V25.267ZM94.263,72.313,113.078,92.9H99.591a1.808,1.808,0,0,0,0,3.616h16.791l2.684,2.937c1.094,1.2.634,2.5.743,3.876h-1.394a1.808,1.808,0,0,0,0,3.616h1.394v2.675h-10.39a13.846,13.846,0,0,0-17.175,0h-19.7V71.384h7.8v21.5a3.643,3.643,0,0,0,3.639,3.639h8.381a1.808,1.808,0,1,0,0-3.616H83.982a.023.023,0,0,1-.023-.023v-21.5h8.2A2.861,2.861,0,0,1,94.263,72.313Zm-7.094,45.723H72.545v-4.8H89.014A13.8,13.8,0,0,0,87.169,118.036Zm-34.712-4.8H68.929v4.8H54.3a13.8,13.8,0,0,0-1.845-4.8Zm-35.616,0h11.98a13.8,13.8,0,0,0-1.845,4.8H16.841Zm15.211-3.616H16.841v-4.2h7.835a1.808,1.808,0,1,0,0-3.616H16.841V96.518h7.835a1.808,1.808,0,1,0,0-3.616H16.841V72.172a.789.789,0,0,1,.788-.788h51.3v38.239h-19.7a13.846,13.846,0,0,0-17.175,0Zm68.78,21.182a10.275,10.275,0,1,1,10.275-10.275A10.287,10.287,0,0,1,100.832,130.8ZM118.4,118.036h-3.9a13.8,13.8,0,0,0-1.845-4.8h7.16v3.383A1.415,1.415,0,0,1,118.4,118.036Z" transform="translate(0)"/></g></svg>