<svg xmlns="http://www.w3.org/2000/svg" width="155.75" height="111.902" viewBox="0 0 155.75 111.902"><defs><style>.a{fill:#fff;}</style></defs><g transform="translate(0 -72)"><path class="a" d="M153.134,135.183a7.152,7.152,0,0,0-12.028-5.236,7.143,7.143,0,0,0-9.744,0,7.147,7.147,0,0,0-7.46-1.435V123.7a16.9,16.9,0,1,0-19.83-4.135l3.424-3.022a12.331,12.331,0,1,1,16.405,1.89v-5.174a7.156,7.156,0,1,0-14.311,0v16.019a22.175,22.175,0,0,1-13.55-13.254v-.176h-.065a22.072,22.072,0,1,1,38.432,5.786l3.652,2.744a26.8,26.8,0,0,0,2.471-3.962h27.523v15.294a7.156,7.156,0,1,0,4.567,0V115.848H142.338a26.7,26.7,0,0,0-3.819-22.8V81.439h10.422a7.156,7.156,0,1,0,0-4.567H133.951V88.058a26.628,26.628,0,0,0-42.776,27.789H69.938a7.156,7.156,0,1,0,0,4.567H92.989a26.781,26.781,0,0,0,13.371,12.513,7.166,7.166,0,0,0-6.512,7.127v12.18a26.416,26.416,0,0,0,9.744,20.6V183.9h4.567v-13.32l-.912-.685a21.91,21.91,0,0,1-8.832-17.662v-12.18a2.588,2.588,0,0,1,5.176,0v7.308h4.567v-34.1a2.588,2.588,0,0,1,5.176,0v26.8H123.9v-4.872a2.588,2.588,0,1,1,5.176,0v4.872h4.567v-4.872a2.588,2.588,0,0,1,5.176,0v4.872h4.567v-4.872a2.588,2.588,0,0,1,5.176,0v17.052a21.91,21.91,0,0,1-8.832,17.662l-.912.685V183.9h4.567V172.833a26.416,26.416,0,0,0,9.744-20.6Zm17.2,9.9a2.588,2.588,0,1,1,2.588-2.588A2.591,2.591,0,0,1,170.338,145.079ZM155.723,76.567a2.588,2.588,0,1,1-2.588,2.588A2.591,2.591,0,0,1,155.723,76.567ZM63.156,120.719a2.588,2.588,0,1,1,2.588-2.588A2.591,2.591,0,0,1,63.156,120.719Z" transform="translate(-38.948 0)"/><path class="a" d="M408.2,373.566V358.808h-4.567v14.758h-5.176V351.5h-4.567v22.066h-5.176V363.68h-4.567v9.886h-4.079l-6.64-6.63-3.227,3.232,7.976,7.965h35.049v-4.567Z" transform="translate(-257.476 -194.393)"/><path class="a" d="M292.833,408H297.3v4.567h-4.466Z" transform="translate(-203.666 -233.689)"/><path class="a" d="M263.5,408h4.466v4.567H263.5Z" transform="translate(-183.265 -233.689)"/><path class="a" d="M46.131,105.8v-4.567H9.439V85.938a7.156,7.156,0,1,0-4.567,0V105.8ZM7.156,76.567a2.588,2.588,0,1,1-2.588,2.588A2.591,2.591,0,0,1,7.156,76.567Z"/><path class="a" d="M71.668,252.524h-26.8v14.989a7.156,7.156,0,1,0,4.567,0V257.092h26.8V247.5H71.668Zm-24.512,24.36a2.588,2.588,0,1,1,2.588-2.588A2.591,2.591,0,0,1,47.156,276.884Z" transform="translate(-27.82 -122.061)"/><path class="a" d="M359.5,110.671h19.336V96.055h21.924V85.938a7.156,7.156,0,1,0-4.567,0v5.55H374.268V106.1H359.5Zm38.976-34.1a2.588,2.588,0,1,1-2.588,2.588A2.591,2.591,0,0,1,398.476,76.567Z" transform="translate(-250.033)"/><path class="a" d="M103.3,83.231,106.525,80l-7.976-7.965H63.5V76.6H96.658Z" transform="translate(-44.164 -0.024)"/><path class="a" d="M79.5,104h4.872v4.567H79.5Z" transform="translate(-55.293 -22.256)"/><path class="a" d="M111.5,104h4.872v4.567H111.5Z" transform="translate(-77.549 -22.256)"/><path class="a" d="M95.5,136h4.872v4.567H95.5Z" transform="translate(-66.421 -44.512)"/><path class="a" d="M127.5,136h4.872v4.567H127.5Z" transform="translate(-88.677 -44.512)"/><path class="a" d="M143.5,104h4.872v4.567H143.5Z" transform="translate(-99.805 -22.256)"/></g></svg>