<svg xmlns="http://www.w3.org/2000/svg" width="109.426" height="118.757" viewBox="0 0 109.426 118.757"><defs><style>.a{fill:#fff;}</style></defs><g transform="translate(-20.116)"><path class="a" d="M229.563,29.593h-1.2a33.588,33.588,0,0,0-2.969-7.164l.856-.856a5.208,5.208,0,0,0,0-7.351l-5.7-5.694a5.2,5.2,0,0,0-7.355,0l-.855.855A33.468,33.468,0,0,0,205.17,6.4V5.2a5.2,5.2,0,0,0-5.2-5.2h-8.06a5.205,5.205,0,0,0-5.2,5.2V6.4a33.565,33.565,0,0,0-7.17,2.976l-.851-.851a5.2,5.2,0,0,0-7.355,0l-5.7,5.7a5.208,5.208,0,0,0,0,7.35l.855.856a33.421,33.421,0,0,0-2.971,7.164h-1.208a5.205,5.205,0,0,0-5.2,5.2V42.86a5.205,5.205,0,0,0,5.2,5.2h1.208a33.43,33.43,0,0,0,2.971,7.164l-.855.856a5.208,5.208,0,0,0,0,7.35l5.7,5.7a5.15,5.15,0,0,0,3.679,1.527h0a5.148,5.148,0,0,0,3.675-1.522l.855-.856a33.4,33.4,0,0,0,7.17,2.972v1.208a5.205,5.205,0,0,0,5.2,5.2h8.06a5.205,5.205,0,0,0,5.2-5.2V71.246a33.293,33.293,0,0,0,7.165-2.971l.85.85a5.2,5.2,0,0,0,7.354.006l5.708-5.7a5.209,5.209,0,0,0,0-7.35l-.856-.856a33.6,33.6,0,0,0,2.969-7.164h1.2a5.205,5.205,0,0,0,5.2-5.2V34.792a5.2,5.2,0,0,0-5.2-5.2Zm-29.032,42.86a.568.568,0,0,1-.56.56h-8.06a.568.568,0,0,1-.56-.56V54.819a2.319,2.319,0,0,0-1.513-2.175A15.887,15.887,0,0,1,186.4,24.571c.2-.134.37-.244.521-.333-.008.3-.03.588-.041.738-.017.235-.031.421-.031.606V36.528a9.6,9.6,0,0,0,8.938,9.553,2.34,2.34,0,0,0,.307,0,9.594,9.594,0,0,0,8.931-9.553V25.581c0-.183-.014-.368-.031-.6-.011-.15-.032-.439-.041-.742.151.09.324.2.519.333a15.889,15.889,0,0,1-3.43,28.075,2.319,2.319,0,0,0-1.512,2.174V72.453ZM230.124,42.86a.575.575,0,0,1-.56.56h-3a2.319,2.319,0,0,0-2.262,1.807,29.01,29.01,0,0,1-3.781,9.122,2.319,2.319,0,0,0,.321,2.879l2.13,2.13a.57.57,0,0,1,0,.789l-5.712,5.706a.557.557,0,0,1-.785-.005l-2.13-2.13a2.32,2.32,0,0,0-2.882-.319,28.775,28.775,0,0,1-6.288,2.986V56.362a20.523,20.523,0,0,0,2.921-35.622c-.864-.59-3.49-2.386-5.788-1.064-2.256,1.3-2.031,4.344-1.935,5.644.008.113.016.208.018.261V36.528a4.471,4.471,0,1,1-8.9,0V25.6c0-.07.01-.165.019-.278.1-1.3.323-4.343-1.931-5.642-2.3-1.325-4.927.472-5.793,1.063a20.521,20.521,0,0,0,2.928,35.623V66.385a28.929,28.929,0,0,1-6.3-2.987,2.32,2.32,0,0,0-2.88.321L175.4,65.854a.558.558,0,0,1-.785,0l-5.7-5.7a.57.57,0,0,1,0-.79l2.13-2.13a2.319,2.319,0,0,0,.321-2.879,28.86,28.86,0,0,1-3.78-9.118,2.319,2.319,0,0,0-2.263-1.811h-3.011a.575.575,0,0,1-.56-.56V34.792a.568.568,0,0,1,.56-.56h3.011a2.32,2.32,0,0,0,2.263-1.811,28.852,28.852,0,0,1,3.78-9.118,2.319,2.319,0,0,0-.321-2.879l-2.13-2.13a.57.57,0,0,1,0-.79l5.705-5.705a.558.558,0,0,1,.785,0l2.13,2.13a2.32,2.32,0,0,0,2.88.321,28.993,28.993,0,0,1,9.127-3.788A2.319,2.319,0,0,0,191.351,8.2v-3a.568.568,0,0,1,.56-.56h8.06a.568.568,0,0,1,.56.56v3a2.319,2.319,0,0,0,1.808,2.262,28.876,28.876,0,0,1,9.118,3.786,2.32,2.32,0,0,0,2.882-.319l2.135-2.135a.558.558,0,0,1,.786.006l5.706,5.7a.57.57,0,0,1,0,.79l-2.13,2.13a2.319,2.319,0,0,0-.321,2.879,29.013,29.013,0,0,1,3.781,9.122,2.319,2.319,0,0,0,2.262,1.807h3a.568.568,0,0,1,.56.56V42.86Z" transform="translate(-105.221)"/><path class="a" d="M380.537,438.067a2.319,2.319,0,1,0,3.28,3.28l.007-.007a2.319,2.319,0,0,0-3.287-3.274Z" transform="translate(-276.302 -335.938)"/><path class="a" d="M114.979,334.85l-18.414,9.457a8.552,8.552,0,0,0-6.168-2.625H77.781a3.48,3.48,0,0,1-.891-.06,6.8,6.8,0,0,1-.685-.6l-.115-.108c-10.207-9.609-18.83-9-28.635-5.13a6.673,6.673,0,0,1-3.21.7l-2.853,0a6.169,6.169,0,0,0-5.847-4.226H26.268a6.163,6.163,0,0,0-6.152,6.159v24.347a6.159,6.159,0,0,0,6.152,6.152h9.277a6.168,6.168,0,0,0,5.846-4.221H46.61a2.468,2.468,0,0,1,1,.151c.195.055.432.122.738.2l24,6.422c1.058.286,2.029.567,2.967.839a30.252,30.252,0,0,0,8.355,1.64c3.045,0,6.23-.957,10.418-3.748l.06-.042,4.583-3.268a2.319,2.319,0,0,0-2.693-3.777l-4.552,3.246c-6.078,4.043-8.659,3.3-14.88,1.493-.958-.278-1.949-.565-3.054-.863l-24.006-6.422c-.281-.076-.5-.138-.683-.189a6.461,6.461,0,0,0-2.255-.325H41.7V341.12h2.507l.1,0,.132-.006a10.873,10.873,0,0,0,4.715-1.015c8.612-3.4,15.259-3.8,23.755,4.2l.115.108a5.616,5.616,0,0,0,4.753,1.92H90.4a3.942,3.942,0,0,1,3.445,2.033c.007.013.016.026.023.04a3.933,3.933,0,0,1-3.468,5.8H69.951a2.319,2.319,0,1,0,0,4.639H90.4a8.567,8.567,0,0,0,8.371-10.442l18.33-9.413a3.732,3.732,0,1,1,3.953,6.324l-8.041,5.727a2.319,2.319,0,1,0,2.691,3.779l8.042-5.727a8.357,8.357,0,0,0-8.764-14.229ZM37.065,362.759a1.537,1.537,0,0,1-1.52,1.514H26.268a1.534,1.534,0,0,1-1.514-1.514V338.412a1.519,1.519,0,0,1,1.514-1.52h9.277a1.54,1.54,0,0,1,1.52,1.52Z" transform="translate(0 -255.19)"/></g></svg>